<?xml version="1.0" encoding="UTF-8"?>
<!DOCTYPE svg PUBLIC "-//W3C//DTD SVG 1.1//EN" "http://www.w3.org/Graphics/SVG/1.1/DTD/svg11.dtd">
<!-- Creator: CorelDRAW 2020 (64 Bit) -->
<svg xmlns="http://www.w3.org/2000/svg" xml:space="preserve" width="4.1222mm" height="1.6496mm" version="1.1" style="shape-rendering:geometricPrecision; text-rendering:geometricPrecision; image-rendering:optimizeQuality; fill-rule:evenodd; clip-rule:evenodd"
viewBox="0 0 3.1 1.24"
 xmlns:xlink="http://www.w3.org/1999/xlink"
 xmlns:xodm="http://www.corel.com/coreldraw/odm/2003">
 <defs>
  <style type="text/css">
   <![CDATA[
    .fil0 {fill:black;fill-rule:nonzero}
   ]]>
  </style>
 </defs>
 <g id="Camada_x0020_1">
  <metadata id="CorelCorpID_0Corel-Layer"/>
  <path class="fil0" d="M0.32 0l0 1.22 -0.32 0 0 -1.22 0.32 0zm1.11 0l0 1.22 -0.28 0 -0 -0.82 -0.11 0.82 -0.19 0 -0.12 -0.81 -0 0.81 -0.28 0 0 -1.22 0.41 0c0.01,0.07 0.02,0.16 0.04,0.26l0.05 0.31 0.07 -0.57 0.41 0zm0.13 0l0.24 0c0.15,0 0.26,0.01 0.31,0.02 0.05,0.01 0.1,0.04 0.12,0.07 0.03,0.03 0.05,0.07 0.05,0.11 0.01,0.04 0.01,0.12 0.01,0.23l0 0.43c0,0.11 -0.01,0.18 -0.02,0.22 -0.01,0.04 -0.03,0.07 -0.05,0.09 -0.03,0.02 -0.06,0.04 -0.1,0.04 -0.04,0.01 -0.09,0.01 -0.17,0.01l-0.4 0 0 -1.22zm0.32 0.21l0 0.8c0.05,0 0.07,-0.01 0.08,-0.03 0.01,-0.02 0.02,-0.07 0.02,-0.15l0 -0.48c0,-0.06 -0,-0.09 -0.01,-0.11 -0,-0.02 -0.01,-0.03 -0.02,-0.03 -0.01,-0.01 -0.04,-0.01 -0.07,-0.01zm0.83 -0.21l0 0.29c0.03,-0.03 0.05,-0.05 0.08,-0.07 0.03,-0.01 0.06,-0.02 0.1,-0.02 0.04,0 0.08,0.01 0.11,0.02 0.03,0.01 0.05,0.03 0.07,0.06 0.02,0.02 0.03,0.05 0.03,0.07 0,0.02 0,0.07 0,0.14l0 0.45c0,0.07 -0,0.13 -0.01,0.16 -0.01,0.04 -0.03,0.07 -0.07,0.09 -0.04,0.03 -0.08,0.04 -0.13,0.04 -0.04,0 -0.07,-0.01 -0.1,-0.02 -0.03,-0.02 -0.06,-0.04 -0.09,-0.07l-0.02 0.08 -0.28 0 0 -1.22 0.3 0zm0.09 0.5c0,-0.05 -0,-0.09 -0.01,-0.1 -0.01,-0.02 -0.02,-0.02 -0.04,-0.02 -0.02,0 -0.03,0.01 -0.04,0.02 -0.01,0.01 -0.01,0.05 -0.01,0.1l0 0.43c0,0.05 0,0.09 0.01,0.1 0.01,0.02 0.02,0.02 0.04,0.02 0.02,0 0.03,-0.01 0.04,-0.02 0.01,-0.02 0.01,-0.05 0.01,-0.11l0 -0.42z"/>
 </g>
</svg>
