<?xml version="1.0" encoding="UTF-8"?>
<!DOCTYPE svg PUBLIC "-//W3C//DTD SVG 1.1//EN" "http://www.w3.org/Graphics/SVG/1.1/DTD/svg11.dtd">
<!-- Creator: CorelDRAW 2020 (64 Bit) -->
<svg xmlns="http://www.w3.org/2000/svg" xml:space="preserve" width="47.3573mm" height="9.9485mm" version="1.1" style="shape-rendering:geometricPrecision; text-rendering:geometricPrecision; image-rendering:optimizeQuality; fill-rule:evenodd; clip-rule:evenodd"
viewBox="0 0 4735.72 994.85"
 xmlns:xlink="http://www.w3.org/1999/xlink"
 xmlns:xodm="http://www.corel.com/coreldraw/odm/2003">
 <defs>
  <style type="text/css">
   <![CDATA[
    .fil2 {fill:#080904}
    .fil0 {fill:#2E241B}
    .fil4 {fill:#575757}
    .fil1 {fill:#706E6F}
    .fil3 {fill:#B2B2B2}
    .fil5 {fill:#DBCFD1}
    .fil6 {fill:black;fill-rule:nonzero}
    .fil7 {fill:#E6E6E6;fill-rule:nonzero}
   ]]>
  </style>
 </defs>
 <g id="Camada_x0020_1">
  <metadata id="CorelCorpID_0Corel-Layer"/>
  <path class="fil0" d="M616.06 740.85c-148.86,22.79 -240.46,101.48 -317.01,254 -0.43,-1.26 -1.74,-5.15 -3.71,-11.05l12.27 -18.5c1.07,-1.61 1.3,-4.81 0.5,-7.11l-5.15 -14.87c-0.79,-2.3 -2.32,-2.86 -3.39,-1.25l-12.06 18.18c-15.34,-46.21 -42.03,-126.84 -56.69,-170.96l10.38 -17.89c0.92,-1.59 1.03,-4.78 0.23,-7.08l-5.14 -14.86c-0.8,-2.31 -2.21,-2.88 -3.13,-1.29l-10.18 17.55c-1.22,-3.65 -2.04,-6.07 -2.37,-7.02 71.33,-154.77 167.77,-230.04 314.01,-252.17l81.44 234.32zm-349.71 -15.65l-13.56 20.44c-1.07,1.62 -2.6,1.06 -3.39,-1.25l-5.15 -14.86c-0.8,-2.3 -0.57,-5.5 0.5,-7.11l13.56 -20.45c1.07,-1.61 2.6,-1.05 3.39,1.25l5.15 14.86c0.8,2.31 0.57,5.5 -0.5,7.12zm29.62 -44.82l-13.92 16.74c-1.33,1.61 -3.07,1.04 -3.87,-1.27l-5.14 -14.86c-0.8,-2.3 -0.36,-5.49 0.97,-7.09l13.92 -16.74c1.33,-1.61 3.07,-1.03 3.87,1.27l5.14 14.86c0.8,2.3 0.36,5.49 -0.97,7.09zm34.06 -38.04l-14.16 13.37c-1.61,1.52 -3.58,0.89 -4.38,-1.41l-5.14 -14.86c-0.8,-2.3 -0.13,-5.42 1.48,-6.95l14.17 -13.37c1.61,-1.53 3.58,-0.89 4.37,1.41l5.15 14.86c0.79,2.3 0.12,5.42 -1.49,6.95zm35.67 -32.5l-13.86 10.54c-1.77,1.35 -3.86,0.64 -4.63,-1.58l-4.96 -14.35c-0.77,-2.22 0.06,-5.14 1.83,-6.49l13.86 -10.55c1.78,-1.35 3.86,-0.64 4.63,1.58l4.97 14.35c0.76,2.22 -0.06,5.14 -1.84,6.5zm38.03 -25.66l-14.14 8.12c-2,1.15 -4.27,0.27 -5.04,-1.95l-4.96 -14.34c-0.77,-2.22 0.24,-4.98 2.24,-6.13l14.14 -8.12c2,-1.15 4.26,-0.28 5.03,1.95l4.97 14.34c0.77,2.22 -0.24,4.98 -2.24,6.13zm40.34 -20.5l-14.52 6.26c-2.15,0.93 -4.54,-0.12 -5.3,-2.35l-4.97 -14.34c-0.77,-2.22 0.36,-4.79 2.52,-5.72l14.52 -6.27c2.15,-0.93 4.53,0.13 5.3,2.35l4.97 14.34c0.77,2.23 -0.36,4.8 -2.52,5.73zm41.97 -15.22l-14.98 4.83c-2.23,0.72 -4.69,-0.5 -5.46,-2.72l-4.96 -14.35c-0.77,-2.22 0.43,-4.62 2.67,-5.34l14.97 -4.83c2.24,-0.72 4.69,0.5 5.46,2.72l4.97 14.34c0.76,2.22 -0.43,4.63 -2.67,5.35zm43.6 -10.32l-15.37 3.88c-2.27,0.58 -4.75,-0.77 -5.52,-2.99l-4.96 -14.34c-0.77,-2.22 0.45,-4.5 2.72,-5.08l15.37 -3.88c2.27,-0.57 4.75,0.77 5.52,2.99l4.97 14.35c0.76,2.22 -0.46,4.5 -2.73,5.07zm-195.51 383.77l-13.57 20.45c-1.07,1.61 -2.59,1.05 -3.39,-1.26l-5.14 -14.86c-0.8,-2.3 -0.57,-5.5 0.5,-7.11l13.56 -20.45c1.07,-1.61 2.6,-1.05 3.39,1.25l5.15 14.87c0.79,2.3 0.57,5.49 -0.5,7.11zm30.82 -44.83l-13.91 16.74c-1.33,1.6 -3.07,1.03 -3.87,-1.27l-5.14 -14.86c-0.8,-2.3 -0.36,-5.49 0.97,-7.09l13.92 -16.75c1.33,-1.6 3.07,-1.03 3.86,1.27l5.15 14.86c0.79,2.3 0.36,5.49 -0.98,7.1zm32.88 -37l-14.23 12.49c-1.69,1.49 -3.73,0.82 -4.52,-1.48l-5.15 -14.85c-0.79,-2.3 -0.06,-5.4 1.64,-6.89l14.22 -12.48c1.69,-1.49 3.73,-0.83 4.52,1.47l5.15 14.86c0.79,2.3 0.06,5.4 -1.63,6.88zm36.2 -33.12l-13.86 10.54c-1.78,1.36 -3.86,0.65 -4.63,-1.57l-4.96 -14.35c-0.77,-2.22 0.05,-5.15 1.83,-6.5l13.86 -10.54c1.78,-1.35 3.86,-0.64 4.63,1.58l4.96 14.35c0.77,2.22 -0.05,5.14 -1.83,6.49zm38.15 -25.29l-14.14 8.12c-2,1.15 -4.26,0.27 -5.03,-1.95l-4.97 -14.34c-0.76,-2.22 0.24,-4.98 2.25,-6.13l14.13 -8.12c2,-1.15 4.27,-0.28 5.04,1.95l4.96 14.34c0.77,2.22 -0.24,4.98 -2.24,6.13zm39.66 -20.97l-14.52 6.26c-2.16,0.93 -4.54,-0.12 -5.31,-2.34l-4.97 -14.35c-0.76,-2.22 0.37,-4.79 2.52,-5.72l14.52 -6.27c2.15,-0.92 4.54,0.13 5.3,2.35l4.97 14.34c0.77,2.23 -0.36,4.8 -2.51,5.73zm42.72 -14.76l-14.97 4.83c-2.24,0.72 -4.69,-0.51 -5.46,-2.73l-4.96 -14.34c-0.77,-2.22 0.43,-4.62 2.66,-5.34l14.98 -4.83c2.23,-0.72 4.69,0.5 5.46,2.72l4.96 14.34c0.77,2.22 -0.43,4.63 -2.67,5.35zm44.25 -10.56l-15.36 3.88c-2.27,0.58 -4.76,-0.77 -5.53,-2.99l-4.96 -14.34c-0.77,-2.22 0.46,-4.51 2.73,-5.08l15.37 -3.88c2.27,-0.57 4.75,0.77 5.52,2.99l4.96 14.34c0.77,2.22 -0.46,4.51 -2.73,5.08z"/>
  <path class="fil1" d="M404.2 785.43l-51.38 -148.98c0,0 -76.78,69.21 -107.85,146.42l52.37 150.66c0,0 35.45,-84.4 106.86,-148.1zm161.18 -80.33c0,0 -91.4,22.46 -137.34,62.72l-52.36 -150.66c0,0 61.49,-48.83 136.5,-61.62l53.2 149.56zm-16.66 -158c-2.95,0.55 -5.65,1.14 -8.07,1.79l52.24 150.29c0,0 2.89,-0.55 8.21,-1.37l-52.38 -150.71z"/>
  <path class="fil0" d="M1051.13 704.69c148.09,-27.34 260.46,16.92 382.84,135.85 0,-1.33 -0.05,-5.44 -0.13,-11.66l-17.66 -13.44c-1.54,-1.18 -2.8,-4.13 -2.81,-6.56l-0.02 -15.73c0,-2.44 1.26,-3.47 2.8,-2.29l17.36 13.21c-0.68,-48.7 -1.94,-133.61 -2.59,-180.1l-15.67 -13.49c-1.4,-1.2 -2.54,-4.18 -2.54,-6.61l-0.03 -15.73c0,-2.44 1.14,-3.45 2.54,-2.24l15.37 13.23c-0.04,-3.85 -0.07,-6.4 -0.07,-7.4 -118.18,-122.78 -233.99,-162.21 -379.39,-135.1l0 248.06zm325.19 -129.59l19.53 14.86c1.54,1.17 2.79,0.14 2.79,-2.3l-0.02 -15.73c0,-2.43 -1.27,-5.38 -2.81,-6.55l-19.52 -14.86c-1.54,-1.18 -2.8,-0.15 -2.8,2.29l0.03 15.73c0,2.43 1.26,5.38 2.8,6.56zm-42.69 -32.62l18.64 11.25c1.79,1.08 3.24,-0.03 3.24,-2.47l-0.02 -15.72c0,-2.44 -1.46,-5.31 -3.25,-6.38l-18.64 -11.25c-1.78,-1.08 -3.24,0.03 -3.24,2.47l0.03 15.72c0,2.44 1.46,5.31 3.24,6.38zm-44.66 -24.75l17.76 7.99c2.03,0.91 3.68,-0.34 3.68,-2.77l-0.02 -15.72c-0.01,-2.44 -1.66,-5.17 -3.69,-6.08l-17.77 -7.99c-2.02,-0.91 -3.67,0.34 -3.67,2.77l0.02 15.73c0,2.43 1.66,5.16 3.69,6.07zm-44.37 -18.98l16.55 5.4c2.13,0.7 3.86,-0.66 3.86,-3.01l-0.02 -15.18c-0.01,-2.35 -1.75,-4.84 -3.87,-5.53l-16.55 -5.41c-2.12,-0.69 -3.85,0.66 -3.85,3.01l0.02 15.18c0,2.35 1.74,4.84 3.86,5.54zm-44.34 -11.76l16.02 3.04c2.27,0.43 4.12,-1.15 4.12,-3.5l-0.02 -15.17c0,-2.35 -1.86,-4.63 -4.13,-5.06l-16.02 -3.03c-2.27,-0.43 -4.12,1.14 -4.12,3.49l0.02 15.18c0.01,2.35 1.86,4.62 4.13,5.05zm-44.84 -6.11l15.77 1.15c2.34,0.17 4.25,-1.61 4.24,-3.96l-0.01 -15.18c-0.01,-2.35 -1.92,-4.41 -4.26,-4.58l-15.77 -1.15c-2.34,-0.17 -4.25,1.61 -4.24,3.96l0.02 15.18c0,2.35 1.91,4.41 4.25,4.58zm-44.64 -0.6l15.74 -0.35c2.34,-0.06 4.26,-2.02 4.26,-4.37l-0.02 -15.17c0,-2.35 -1.93,-4.23 -4.28,-4.18l-15.73 0.36c-2.35,0.05 -4.26,2.01 -4.26,4.36l0.02 15.18c0,2.35 1.93,4.23 4.27,4.17zm-44.56 4.57l15.79 -1.38c2.33,-0.2 4.23,-2.29 4.23,-4.64l-0.02 -15.17c0,-2.35 -1.91,-4.11 -4.24,-3.9l-15.8 1.38c-2.33,0.2 -4.23,2.29 -4.23,4.64l0.02 15.17c0.01,2.35 1.91,4.11 4.25,3.9zm310.66 298.31l19.53 14.85c1.54,1.18 2.8,0.14 2.79,-2.29l-0.02 -15.73c0,-2.44 -1.26,-5.38 -2.8,-6.56l-19.53 -14.85c-1.54,-1.18 -2.8,-0.15 -2.79,2.29l0.02 15.73c0,2.43 1.26,5.38 2.8,6.56zm-43.83 -32.23l18.64 11.24c1.79,1.08 3.24,-0.03 3.24,-2.46l-0.02 -15.73c-0.01,-2.44 -1.47,-5.3 -3.25,-6.38l-18.64 -11.25c-1.79,-1.07 -3.24,0.04 -3.24,2.47l0.02 15.73c0,2.43 1.47,5.3 3.25,6.38zm-43.2 -24.15l17.54 7.12c2.09,0.85 3.79,-0.44 3.79,-2.88l-0.02 -15.72c-0.01,-2.43 -1.71,-5.12 -3.8,-5.97l-17.54 -7.12c-2.09,-0.85 -3.79,0.45 -3.79,2.88l0.02 15.72c0.01,2.44 1.72,5.12 3.8,5.97zm-45.07 -19.4l16.55 5.41c2.13,0.69 3.86,-0.67 3.86,-3.01l-0.02 -15.19c-0.01,-2.35 -1.74,-4.84 -3.87,-5.53l-16.55 -5.41c-2.12,-0.69 -3.85,0.66 -3.85,3.01l0.02 15.19c0,2.35 1.74,4.84 3.86,5.53zm-44.34 -11.37l16.02 3.03c2.27,0.43 4.12,-1.14 4.12,-3.49l-0.02 -15.18c0,-2.35 -1.86,-4.62 -4.13,-5.05l-16.02 -3.03c-2.27,-0.43 -4.12,1.14 -4.12,3.49l0.02 15.18c0.01,2.35 1.86,4.62 4.13,5.05zm-44.34 -6.78l15.77 1.15c2.34,0.17 4.25,-1.61 4.24,-3.96l-0.01 -15.18c-0.01,-2.35 -1.92,-4.41 -4.26,-4.58l-15.77 -1.15c-2.34,-0.17 -4.25,1.61 -4.24,3.96l0.02 15.17c0,2.35 1.91,4.41 4.25,4.59zm-45.21 0.08l15.74 -0.35c2.34,-0.06 4.26,-2.02 4.26,-4.37l-0.02 -15.17c-0.01,-2.35 -1.93,-4.23 -4.28,-4.18l-15.73 0.36c-2.35,0.05 -4.26,2.01 -4.26,4.36l0.02 15.18c0,2.35 1.93,4.23 4.27,4.17zm-45.26 4.56l15.79 -1.38c2.33,-0.2 4.24,-2.29 4.24,-4.64l-0.03 -15.18c0,-2.34 -1.91,-4.1 -4.24,-3.9l-15.79 1.38c-2.33,0.21 -4.24,2.29 -4.23,4.64l0.02 15.18c0,2.35 1.91,4.1 4.24,3.9z"/>
  <path class="fil1" d="M1265.89 677.25l-0.38 -157.59c0,0 95.24,40.16 149.94,102.89l0 159.5c0,0 -61.2,-68.08 -149.56,-104.8zm-178.62 -22.96c0,0 93.71,-8.8 150.32,14.15l0 -159.5c0,0 -74.12,-25.94 -149.17,-13.38l-1.15 158.73zm-36.14 -154.72c2.96,-0.44 5.72,-0.77 8.22,-0.96l0 159.12c0,0 -2.92,0.43 -8.22,1.4l0 -159.56z"/>
  <circle class="fil2" cx="838.42" cy="491.12" r="356.48"/>
  <path class="fil3" d="M838.42 0c271.24,0 491.12,219.89 491.12,491.12 0,271.24 -219.88,491.12 -491.12,491.12 -271.24,0 -491.12,-219.88 -491.12,-491.12 0,-271.23 219.88,-491.12 491.12,-491.12zm-394.28 637.16c-37.09,-98 -35.73,-195.92 0.63,-293.76l298.1 113.86 -0.15 68.09c-99.53,37.27 -199.06,74.54 -298.58,111.81zm247.4 -540.01c97.92,-37.29 195.83,-36.14 293.75,0l-113.21 298.35 -68.09 0c-37.48,-99.45 -74.97,-198.9 -112.45,-298.35zm541.52 248.9c36.84,98.09 35.25,196 -1.34,293.75l-297.83 -114.58 0.31 -68.09c99.62,-37.03 199.24,-74.05 298.86,-111.08zm-250.24 539.96c-98.16,36.68 -196.06,34.91 -293.75,-1.85l115.09 -297.62 68.09 0.43c36.86,99.68 73.71,199.36 110.57,299.04z"/>
  <circle class="fil4" cx="838.42" cy="491.12" r="146.88"/>
  <circle class="fil5" cx="838.42" cy="491.12" r="72.67"/>
  <path class="fil0" d="M-0 591.73c177.75,-199.61 422.51,-177.79 714.49,0 343.94,189.41 516.68,193.73 716.03,0 0,1.33 -0.04,5.44 -0.12,11.66l-17.66 13.44c-1.55,1.17 -2.81,4.12 -2.81,6.56l-0.02 15.73c0,2.43 1.25,3.46 2.79,2.29l17.37 -13.21c-0.68,48.69 -1.95,133.61 -2.59,180.1l-15.67 13.49c-1.4,1.2 -2.54,4.17 -2.55,6.61l-0.02 15.73c0,2.44 1.14,3.44 2.54,2.24l15.37 -13.23c-0.04,3.84 -0.07,6.4 -0.07,7.4 -198.98,206.71 -391.22,177.18 -729.23,-8.41 -290.32,-159.42 -505.71,-192.98 -697.85,7.83l0 -6.33 11.72 -10.72c1.35,-1.24 2.3,-4.14 2.11,-6.44l-1.21 -14.93c-0.19,-2.3 -1.45,-3.18 -2.8,-1.95l-9.82 8.99 0 -184.63 17.26 -15.8c1.35,-1.23 2.3,-4.13 2.11,-6.44l-1.22 -14.92c-0.18,-2.31 -1.44,-3.19 -2.79,-1.95l-15.36 14.05 0 -7.16zm213.41 -126.46l18.47 -3.31c2.44,-0.44 4.67,1.22 4.95,3.7l1.8 15.98c0.28,2.47 -1.49,4.86 -3.94,5.29l-18.47 3.32c-2.44,0.44 -4.67,-1.22 -4.95,-3.7l-1.8 -15.98c-0.28,-2.47 1.5,-4.86 3.94,-5.3zm-180.04 104.2l22.91 -20.97c1.35,-1.23 2.61,-0.36 2.8,1.95l1.21 14.92c0.19,2.31 -0.76,5.21 -2.11,6.45l-22.91 20.97c-1.35,1.23 -2.61,0.36 -2.8,-1.95l-1.21 -14.92c-0.19,-2.31 0.76,-5.21 2.11,-6.45zm135.56 119.44l19.63 -6.58c2.24,-0.75 4.21,0.62 4.38,3.05l1.12 15.7c0.17,2.43 -1.52,5.02 -3.76,5.77l-19.63 6.59c-2.24,0.75 -4.21,-0.63 -4.38,-3.06l-1.11 -15.69c-0.17,-2.43 1.51,-5.03 3.75,-5.78zm-45.46 21.23l19.92 -9.62c2.04,-0.99 3.95,0.15 4.22,2.55l1.81 15.43c0.27,2.39 -1.17,5.15 -3.22,6.14l-19.91 9.62c-2.05,0.99 -3.95,-0.15 -4.23,-2.54l-1.8 -15.44c-0.28,-2.39 1.16,-5.15 3.21,-6.14zm-45.21 31.12l20.99 -15.03c1.55,-1.11 2.97,-0.2 3.14,2.03l1.12 14.36c0.17,2.23 -0.95,4.95 -2.5,6.07l-20.99 15.03c-1.55,1.11 -2.97,0.2 -3.14,-2.03l-1.12 -14.36c-0.18,-2.23 0.95,-4.95 2.5,-6.07zm-44.46 34.38l22.48 -17.75c1.52,-1.2 2.89,-0.27 3.06,2.06l1.06 15.1c0.17,2.33 -0.94,5.22 -2.46,6.43l-22.47 17.75c-1.52,1.2 -2.9,0.27 -3.06,-2.07l-1.07 -15.09c-0.16,-2.34 0.95,-5.23 2.46,-6.43zm135.02 -294.43l19.09 -6.34c2.27,-0.75 4.36,0.62 4.64,3.05l1.8 15.71c0.28,2.43 -1.36,5.04 -3.63,5.79l-19.09 6.34c-2.27,0.75 -4.36,-0.62 -4.64,-3.05l-1.8 -15.71c-0.28,-2.43 1.35,-5.04 3.63,-5.79zm-45.23 21.57l20.29 -10.66c1.97,-1.03 3.79,0.07 4.04,2.45l1.62 15.4c0.26,2.38 -1.15,5.17 -3.12,6.21l-20.3 10.65c-1.97,1.04 -3.78,-0.07 -4.04,-2.45l-1.62 -15.39c-0.25,-2.39 1.16,-5.18 3.13,-6.21zm-45.36 28.83l19.98 -12.83c1.83,-1.18 3.62,-0.21 3.97,2.16l2.27 15.28c0.35,2.37 -0.87,5.27 -2.7,6.45l-19.98 12.83c-1.83,1.18 -3.62,0.21 -3.97,-2.16l-2.27 -15.28c-0.35,-2.37 0.87,-5.27 2.7,-6.45zm360.56 153.99l17.49 3.95c2.39,0.55 4.35,3.04 4.34,5.56l-0.02 16.24c0,2.52 -1.96,4.13 -4.35,3.59l-17.49 -3.96c-2.39,-0.54 -4.35,-3.03 -4.34,-5.55l0.02 -16.24c0,-2.52 1.96,-4.13 4.35,-3.59zm-178.34 -18.52l17.21 -2.27c2.46,-0.33 4.52,1.44 4.58,3.93l0.41 16.1c0.07,2.49 -1.89,4.79 -4.35,5.12l-17.21 2.27c-2.46,0.33 -4.52,-1.44 -4.58,-3.93l-0.42 -16.1c-0.06,-2.49 1.9,-4.79 4.36,-5.12zm1112.43 190.09l19.53 -14.86c1.54,-1.17 2.79,-0.14 2.79,2.3l-0.02 15.73c-0.01,2.43 -1.27,5.38 -2.81,6.55l-19.52 14.86c-1.54,1.17 -2.8,0.14 -2.8,-2.29l0.02 -15.73c0.01,-2.44 1.27,-5.39 2.81,-6.56zm-42.69 32.61l18.64 -11.24c1.79,-1.08 3.24,0.03 3.24,2.46l-0.02 15.73c-0.01,2.44 -1.46,5.3 -3.25,6.38l-18.64 11.25c-1.79,1.07 -3.24,-0.04 -3.24,-2.47l0.02 -15.73c0.01,-2.43 1.47,-5.3 3.25,-6.38zm-44.67 24.75l17.77 -7.98c2.02,-0.91 3.68,0.33 3.67,2.77l-0.02 15.72c0,2.43 -1.66,5.17 -3.68,6.08l-17.77 7.98c-2.02,0.91 -3.67,-0.33 -3.67,-2.77l0.02 -15.72c0,-2.43 1.66,-5.17 3.68,-6.08zm-44.36 18.99l16.55 -5.41c2.12,-0.69 3.86,0.67 3.86,3.01l-0.03 15.19c0,2.35 -1.74,4.84 -3.86,5.53l-16.55 5.41c-2.12,0.69 -3.86,-0.66 -3.85,-3.01l0.02 -15.19c0,-2.35 1.74,-4.84 3.86,-5.53zm-44.34 11.75l16.02 -3.03c2.27,-0.43 4.12,1.14 4.12,3.49l-0.02 15.18c-0.01,2.35 -1.86,4.62 -4.13,5.05l-16.02 3.03c-2.27,0.43 -4.12,-1.14 -4.12,-3.49l0.02 -15.17c0,-2.36 1.86,-4.63 4.13,-5.06zm-44.84 6.12l15.77 -1.15c2.34,-0.17 4.25,1.61 4.24,3.96l-0.02 15.18c0,2.35 -1.91,4.41 -4.25,4.58l-15.77 1.15c-2.34,0.17 -4.25,-1.61 -4.24,-3.96l0.02 -15.18c0,-2.35 1.91,-4.41 4.25,-4.58zm-44.64 0.6l15.74 0.35c2.34,0.05 4.26,2.02 4.26,4.37l-0.02 15.17c-0.01,2.35 -1.93,4.23 -4.28,4.18l-15.73 -0.36c-2.35,-0.05 -4.26,-2.02 -4.26,-4.37l0.02 -15.17c0,-2.35 1.92,-4.23 4.27,-4.17zm-44.57 -4.57l15.8 1.38c2.33,0.2 4.23,2.29 4.23,4.63l-0.02 15.18c-0.01,2.35 -1.91,4.1 -4.25,3.9l-15.79 -1.38c-2.33,-0.2 -4.23,-2.29 -4.23,-4.64l0.02 -15.17c0,-2.35 1.91,-4.11 4.24,-3.9zm-43.91 -8.38l16.03 3.11c2.27,0.45 4.12,2.72 4.11,5.08l-0.02 15.16c0,2.35 -1.85,3.92 -4.12,3.48l-16.03 -3.12c-2.27,-0.44 -4.12,-2.72 -4.11,-5.07l0.02 -15.17c0,-2.35 1.85,-3.91 4.12,-3.47zm-45.88 -12.25l16.37 4.69c2.18,0.61 3.95,3.04 3.95,5.39l-0.02 15.17c-0.01,2.35 -1.78,3.76 -3.96,3.14l-16.37 -4.68c-2.17,-0.62 -3.94,-3.05 -3.94,-5.4l0.02 -15.17c0,-2.34 1.78,-3.76 3.95,-3.14zm-44.69 -16.39l16.64 5.79c2.1,0.73 3.81,3.25 3.81,5.6l-0.02 15.17c-0.01,2.34 -1.72,3.67 -3.82,2.94l-16.65 -5.79c-2.09,-0.73 -3.8,-3.25 -3.8,-5.59l0.02 -15.17c0,-2.35 1.72,-3.67 3.82,-2.95zm-44.89 -18.39l17.11 7.52c1.97,0.86 3.57,3.49 3.57,5.84l-0.02 15.16c0,2.35 -1.62,3.56 -3.58,2.7l-17.11 -7.52c-1.97,-0.86 -3.58,-3.49 -3.58,-5.84l0.02 -15.16c0.01,-2.35 1.62,-3.57 3.59,-2.7zm-44.35 -20.17l17.8 7.77c2.03,0.88 3.69,3.59 3.69,6.01l-0.02 15.65c0,2.42 -1.67,3.67 -3.71,2.78l-17.79 -7.76c-2.03,-0.89 -3.7,-3.6 -3.69,-6.02l0.02 -15.65c0,-2.42 1.67,-3.67 3.7,-2.78zm-46.09 -22.55l19.57 9.52c1.9,0.93 3.45,3.6 3.44,5.95l-0.02 15.17c0,2.35 -1.56,3.51 -3.46,2.58l-19.56 -9.52c-1.9,-0.93 -3.45,-3.6 -3.44,-5.95l0.02 -15.16c0,-2.35 1.55,-3.52 3.45,-2.59zm-43.88 -22.03l18.73 7.98c2.09,0.89 3.79,3.64 3.79,6.11l-0.02 15.95c0,2.47 -1.72,3.76 -3.81,2.87l-18.73 -7.98c-2.09,-0.89 -3.79,-3.64 -3.79,-6.11l0.02 -15.95c0,-2.47 1.72,-3.76 3.81,-2.87zm-42.74 -22.59l17.1 7.51c1.97,0.87 3.58,3.5 3.58,5.84l-0.02 15.17c0,2.35 -1.62,3.56 -3.59,2.69l-17.11 -7.51c-1.96,-0.87 -3.57,-3.5 -3.57,-5.84l0.02 -15.17c0,-2.35 1.62,-3.56 3.59,-2.69zm-44.37 -22.51l17.11 7.51c1.97,0.87 3.57,3.5 3.57,5.84l-0.02 15.17c0,2.35 -1.61,3.56 -3.58,2.69l-17.11 -7.51c-1.97,-0.87 -3.58,-3.5 -3.58,-5.84l0.02 -15.17c0.01,-2.35 1.62,-3.56 3.59,-2.69zm-44.89 -23.28l17.11 7.52c1.97,0.87 3.57,3.49 3.57,5.84l-0.02 15.17c0,2.35 -1.62,3.56 -3.58,2.69l-17.11 -7.51c-1.97,-0.87 -3.58,-3.5 -3.58,-5.85l0.02 -15.16c0.01,-2.35 1.62,-3.56 3.59,-2.7zm-45.17 -21.78l19.24 9.38c1.9,0.93 3.45,3.6 3.45,5.95l-0.02 15.17c-0.01,2.35 -1.56,3.51 -3.46,2.58l-19.24 -9.38c-1.9,-0.93 -3.45,-3.6 -3.44,-5.95l0.02 -15.17c0,-2.34 1.56,-3.51 3.45,-2.58zm-43.9 -19.57l17.11 7.51c1.97,0.87 3.58,3.5 3.58,5.85l-0.02 15.16c-0.01,2.35 -1.62,3.56 -3.59,2.7l-17.11 -7.52c-1.97,-0.87 -3.57,-3.49 -3.57,-5.84l0.02 -15.17c0,-2.34 1.62,-3.56 3.58,-2.69zm-44.71 -17.85l17.71 6.67c2.14,0.81 3.89,3.47 3.89,5.92l-0.02 15.82c0,2.45 -1.76,3.79 -3.91,2.98l-17.71 -6.66c-2.14,-0.81 -3.89,-3.47 -3.89,-5.92l0.02 -15.82c0,-2.45 1.76,-3.79 3.91,-2.99zm-88.3 -26.7l17.48 3.95c2.4,0.54 4.35,3.04 4.35,5.56l-0.02 16.24c-0.01,2.51 -1.97,4.13 -4.36,3.59l-17.49 -3.96c-2.39,-0.54 -4.34,-3.04 -4.34,-5.55l0.02 -16.24c0,-2.52 1.96,-4.13 4.36,-3.59zm-44.97 -6.23l17.15 1.86c2.48,0.28 4.51,2.55 4.51,5.07l-0.02 16.24c0,2.52 -2.04,4.35 -4.53,4.08l-17.14 -1.87c-2.49,-0.27 -4.52,-2.55 -4.51,-5.06l0.02 -16.25c0,-2.51 2.04,-4.34 4.52,-4.07zm-44.87 -2.21l18.57 1.11c2.49,0.15 4.58,2.32 4.65,4.82l0.44 16.17c0.07,2.51 -1.92,4.44 -4.41,4.29l-18.56 -1.11c-2.5,-0.15 -4.59,-2.32 -4.65,-4.82l-0.44 -16.17c-0.07,-2.51 1.91,-4.44 4.4,-4.29zm-90 10.36l17.52 -4.07c2.37,-0.56 4.36,1.02 4.43,3.51l0.41 16.05c0.06,2.49 -1.82,4.97 -4.19,5.52l-17.53 4.08c-2.37,0.55 -4.36,-1.03 -4.43,-3.51l-0.41 -16.06c-0.06,-2.48 1.82,-4.96 4.2,-5.52zm1158.28 -25.79l19.53 -14.86c1.54,-1.17 2.8,-0.14 2.79,2.3l-0.02 15.73c0,2.43 -1.26,5.38 -2.8,6.55l-19.53 14.86c-1.54,1.17 -2.8,0.14 -2.79,-2.29l0.02 -15.73c0,-2.44 1.26,-5.38 2.8,-6.56zm-43.83 32.23l18.64 -11.25c1.78,-1.07 3.24,0.04 3.24,2.47l-0.03 15.73c0,2.43 -1.46,5.3 -3.24,6.38l-18.65 11.24c-1.78,1.08 -3.23,-0.03 -3.23,-2.46l0.02 -15.73c0,-2.44 1.46,-5.31 3.25,-6.38zm-43.2 24.15l17.54 -7.13c2.08,-0.84 3.79,0.45 3.79,2.89l-0.02 15.72c-0.01,2.43 -1.72,5.12 -3.81,5.96l-17.53 7.13c-2.09,0.85 -3.79,-0.45 -3.79,-2.88l0.02 -15.73c0,-2.43 1.71,-5.11 3.8,-5.96zm-45.07 19.4l16.55 -5.41c2.12,-0.69 3.86,0.66 3.86,3.01l-0.02 15.18c-0.01,2.35 -1.75,4.84 -3.87,5.54l-16.55 5.4c-2.12,0.7 -3.86,-0.66 -3.85,-3.01l0.02 -15.18c0,-2.35 1.74,-4.84 3.86,-5.53zm-44.34 11.36l16.02 -3.03c2.27,-0.43 4.12,1.15 4.12,3.5l-0.02 15.17c-0.01,2.35 -1.86,4.63 -4.13,5.06l-16.02 3.03c-2.27,0.43 -4.12,-1.14 -4.12,-3.49l0.02 -15.18c0,-2.35 1.86,-4.62 4.13,-5.06zm-44.34 6.79l15.77 -1.15c2.34,-0.17 4.25,1.61 4.24,3.96l-0.02 15.18c0,2.35 -1.91,4.41 -4.25,4.58l-15.77 1.15c-2.34,0.17 -4.25,-1.61 -4.24,-3.96l0.02 -15.18c0,-2.35 1.91,-4.41 4.25,-4.58zm-45.21 -0.09l15.73 0.36c2.35,0.05 4.27,2.02 4.27,4.36l-0.02 15.18c-0.01,2.35 -1.93,4.23 -4.28,4.17l-15.73 -0.35c-2.35,-0.05 -4.26,-2.02 -4.26,-4.37l0.02 -15.17c0,-2.35 1.92,-4.23 4.27,-4.18zm-45.26 -4.55l15.79 1.38c2.33,0.2 4.24,2.29 4.23,4.64l-0.02 15.17c0,2.35 -1.91,4.11 -4.24,3.9l-15.79 -1.38c-2.33,-0.2 -4.24,-2.29 -4.23,-4.64l0.02 -15.17c0,-2.35 1.91,-4.11 4.24,-3.9zm-43.92 -8.37l16.04 3.11c2.27,0.44 4.11,2.72 4.11,5.07l-0.02 15.17c0,2.35 -1.86,3.91 -4.12,3.47l-16.04 -3.11c-2.26,-0.44 -4.11,-2.72 -4.11,-5.07l0.02 -15.17c0.01,-2.35 1.86,-3.92 4.12,-3.47zm-44.91 -12.44l16.37 4.68c2.17,0.62 3.95,3.05 3.94,5.4l-0.02 15.17c0,2.34 -1.78,3.76 -3.95,3.14l-16.37 -4.69c-2.18,-0.61 -3.95,-3.04 -3.95,-5.39l0.02 -15.17c0.01,-2.35 1.79,-3.76 3.96,-3.14zm-45.51 -16.33l17.11 7.51c1.97,0.87 3.58,3.5 3.58,5.85l-0.02 15.16c-0.01,2.35 -1.62,3.56 -3.59,2.69l-17.11 -7.51c-1.97,-0.87 -3.57,-3.5 -3.57,-5.84l0.02 -15.17c0,-2.35 1.61,-3.56 3.58,-2.69zm-44.56 -17.98l17.11 7.52c1.97,0.86 3.58,3.49 3.57,5.84l-0.01 15.17c-0.01,2.34 -1.62,3.55 -3.59,2.69l-17.11 -7.52c-1.97,-0.86 -3.58,-3.49 -3.57,-5.84l0.02 -15.16c0,-2.35 1.61,-3.57 3.58,-2.7zm-44.37 -19.7l17.11 7.52c1.97,0.86 3.58,3.49 3.57,5.84l-0.01 15.17c-0.01,2.34 -1.62,3.56 -3.59,2.69l-17.11 -7.52c-1.97,-0.86 -3.58,-3.49 -3.57,-5.84l0.02 -15.16c0,-2.35 1.61,-3.56 3.58,-2.7zm-44.18 -21.42l17.11 7.52c1.97,0.86 3.58,3.49 3.58,5.84l-0.02 15.17c-0.01,2.34 -1.62,3.56 -3.59,2.69l-17.11 -7.52c-1.97,-0.86 -3.58,-3.49 -3.57,-5.84l0.02 -15.16c0,-2.35 1.61,-3.56 3.58,-2.7zm-45.13 -22.56l17.11 7.52c1.97,0.86 3.57,3.49 3.57,5.84l-0.02 15.17c0,2.34 -1.62,3.56 -3.58,2.69l-17.11 -7.52c-1.97,-0.86 -3.58,-3.49 -3.58,-5.84l0.02 -15.16c0.01,-2.35 1.62,-3.57 3.59,-2.7zm-43.61 -23.26l17.11 7.52c1.97,0.87 3.57,3.49 3.57,5.84l-0.02 15.17c0,2.35 -1.61,3.56 -3.58,2.69l-17.11 -7.51c-1.97,-0.87 -3.58,-3.5 -3.58,-5.84l0.02 -15.17c0.01,-2.35 1.62,-3.56 3.59,-2.7zm-43.8 -23.14l17.11 7.52c1.97,0.86 3.58,3.49 3.58,5.84l-0.02 15.17c-0.01,2.34 -1.62,3.56 -3.59,2.69l-17.11 -7.52c-1.97,-0.86 -3.57,-3.49 -3.57,-5.84l0.02 -15.16c0,-2.35 1.61,-3.56 3.58,-2.7zm-43.98 -21.99l17.11 7.51c1.96,0.87 3.57,3.5 3.57,5.85l-0.02 15.16c0,2.35 -1.62,3.56 -3.59,2.7l-17.1 -7.52c-1.97,-0.87 -3.58,-3.49 -3.58,-5.84l0.02 -15.17c0,-2.35 1.62,-3.56 3.59,-2.69zm-44.85 -22.38l17.11 7.52c1.97,0.86 3.58,3.49 3.57,5.84l-0.02 15.17c0,2.34 -1.61,3.56 -3.58,2.69l-17.11 -7.52c-1.97,-0.86 -3.58,-3.49 -3.58,-5.84l0.02 -15.16c0.01,-2.35 1.62,-3.57 3.59,-2.7zm-45.23 -19.41l17.11 7.52c1.97,0.86 3.57,3.49 3.57,5.84l-0.02 15.16c0,2.35 -1.61,3.56 -3.58,2.7l-17.11 -7.52c-1.97,-0.87 -3.58,-3.49 -3.58,-5.84l0.02 -15.17c0.01,-2.34 1.62,-3.56 3.59,-2.69zm-44.9 -17.73l17.76 5.22c2.32,0.68 4.21,3.29 4.21,5.8l-0.03 16.24c0,2.51 -1.9,4.01 -4.21,3.33l-17.77 -5.21c-2.31,-0.68 -4.2,-3.29 -4.2,-5.81l0.02 -16.23c0,-2.52 1.9,-4.02 4.22,-3.34zm-44.33 -15.17l17.49 3.95c2.39,0.55 4.35,3.04 4.34,5.56l-0.02 16.24c0,2.51 -1.96,4.13 -4.36,3.59l-17.48 -3.96c-2.39,-0.54 -4.35,-3.04 -4.34,-5.55l0.02 -16.24c0,-2.52 1.96,-4.13 4.35,-3.59zm-44.95 -11.38l17.49 3.95c2.39,0.55 4.34,3.04 4.34,5.56l-0.02 16.24c0,2.51 -1.96,4.13 -4.36,3.59l-17.48 -3.96c-2.4,-0.54 -4.35,-3.04 -4.35,-5.55l0.03 -16.24c0,-2.52 1.96,-4.13 4.35,-3.59zm-44.71 -6.3l18.6 1.58c2.48,0.21 4.57,2.43 4.64,4.94l0.43 16.18c0.07,2.51 -1.91,4.38 -4.39,4.17l-18.6 -1.58c-2.48,-0.21 -4.56,-2.43 -4.63,-4.94l-0.44 -16.18c-0.07,-2.51 1.91,-4.38 4.39,-4.17zm-44.26 -3.4l16.07 0.15c2.49,0.02 4.57,2.07 4.63,4.56l0.4 16.2c0.06,2.49 -1.92,4.5 -4.41,4.48l-16.07 -0.15c-2.49,-0.02 -4.57,-2.07 -4.63,-4.56l-0.4 -16.2c-0.06,-2.49 1.92,-4.5 4.41,-4.48zm-45.88 2.89l18.65 -2.12c2.47,-0.28 4.54,1.52 4.61,4.02l0.44 16.09c0.06,2.5 -1.9,4.77 -4.37,5.05l-18.65 2.12c-2.47,0.29 -4.54,-1.52 -4.61,-4.02l-0.43 -16.09c-0.07,-2.5 1.89,-4.76 4.36,-5.05z"/>
  <path class="fil1" d="M15.69 622.31l0.38 157.97c0,0 105.57,-96.77 149.94,-101.36l0.01 -159.89c0,0 -82.24,34.63 -150.33,103.28zm1246.76 132.71l-0.38 157.59c0,0 95.24,-40.17 149.94,-102.89l0 -159.51c0,0 -61.2,68.09 -149.56,104.81zm-178.62 22.96c0,0 93.71,8.79 150.32,-14.16l0 159.5c0,0 -74.12,25.95 -149.18,13.39l-1.14 -158.73zm-177.1 -47.81l0 160.26c0,0 108.25,40.16 149.17,43.22l0 -159.11c0,0 -70.37,-10.33 -149.17,-44.37zm-179.01 -84.91l151.08 73.44 0 159.12 -150.31 -73.44 -0.77 -159.12zm-177.86 -90.65l0 158.74 149.55 74.97 0 -158.36 -149.55 -75.35zm-178.25 -55.46l0 159.89c0,0 80.71,9.94 149.94,43.6l0 -159.12c0,0 -69.99,-33.28 -149.94,-44.37zm-178.62 11.47l0 158.36c0,0 82.24,-24.87 150.7,-13.77l0 -161.42c0,0 -75.35,-7.65 -150.7,16.83z"/>
  <path class="fil6" d="M1655.72 693.37c-47.17,0 -85.33,-14.43 -114.5,-43.29 -29.17,-28.85 -43.75,-66.87 -43.75,-114.03l0 -355.61c0,-47.16 14.58,-85.18 43.75,-114.03 29.17,-28.86 67.33,-43.29 114.5,-43.29 3.08,0 6.13,0.06 9.13,0.19 -42.99,1.76 -78.11,16.12 -105.38,43.1 -29.16,28.85 -43.75,66.87 -43.75,114.03l0 355.61c0,47.16 14.59,85.18 43.75,114.03 27.27,26.97 62.39,41.34 105.38,43.1 -3,0.13 -6.05,0.19 -9.13,0.19zm9.13 -93.57c14.32,-1.58 25.86,-7 34.62,-16.28 10.55,-11.17 15.83,-26.99 15.83,-47.47l0 -355.61c0,-20.48 -5.28,-36.3 -15.83,-47.48 -8.76,-9.27 -20.3,-14.69 -34.62,-16.27 2.92,-0.32 5.97,-0.48 9.12,-0.48 18.62,0 33.21,5.59 43.76,16.75 10.55,11.18 15.82,27 15.82,47.48l0 355.61c0,20.48 -5.27,36.3 -15.82,47.47 -10.55,11.17 -25.14,16.76 -43.76,16.76 -3.15,0 -6.2,-0.16 -9.12,-0.48zm581.07 93.57c-45.93,0 -83.16,-14.27 -111.71,-42.82 -28.55,-28.55 -42.82,-65.78 -42.82,-111.71l0 -361.19c0,-45.93 14.27,-83.16 42.82,-111.71 28.55,-28.55 65.78,-42.82 111.71,-42.82 3.08,0 6.12,0.07 9.12,0.19 -41.75,1.79 -75.95,16 -102.58,42.63 -28.55,28.55 -42.82,65.78 -42.82,111.71l0 361.19c0,45.93 14.27,83.16 42.82,111.71 26.63,26.63 60.83,40.84 102.58,42.63 -3,0.12 -6.04,0.19 -9.12,0.19zm75.97 -439.39l-18.26 0 0 -76.33c0,-18.62 -5.27,-33.51 -15.82,-44.69 -8.57,-9.06 -19.18,-14.45 -31.84,-16.16 2.94,-0.4 5.98,-0.59 9.13,-0.59 16.76,0 30.41,5.59 40.96,16.75 10.55,11.18 15.83,26.07 15.83,44.69l0 76.33zm-65.92 345.71c12.66,-1.71 23.27,-7.1 31.84,-16.17 10.55,-11.17 15.82,-26.06 15.82,-44.68l0 -93.09 18.26 0 0 93.09c0,18.62 -5.28,33.51 -15.83,44.68 -10.55,11.17 -24.2,16.76 -40.96,16.76 -3.15,0 -6.19,-0.19 -9.13,-0.59zm234.77 -567.26l18.26 0 0 651.63 -18.26 0 0 -651.63zm206.66 0l18.26 0 0 651.63 -18.26 0 0 -651.63zm234.59 373.97l0 -373.97 18.26 0 0 437.52 -18.26 -63.55zm10.81 277.66l-18.25 0 -112.07 -358.63 0 -58.41 130.32 417.04zm193.99 -651.63l18.26 0 0 651.63 -18.26 0 0 -651.63zm363.06 0l18.25 0 0 651.63 -18.25 0 0 -651.63zm351.88 0l18.25 0 0 651.63 -18.25 0 0 -651.63zm206.66 0l18.25 0 0 651.63 -18.25 0 0 -651.63zm500.83 660.94c-47.17,0 -85.33,-14.43 -114.5,-43.29 -29.17,-28.85 -43.75,-66.87 -43.75,-114.03l0 -355.61c0,-47.16 14.58,-85.18 43.75,-114.03 29.17,-28.86 67.33,-43.29 114.5,-43.29 3.08,0 6.13,0.06 9.13,0.19 -42.99,1.76 -78.11,16.12 -105.38,43.1 -29.17,28.85 -43.75,66.87 -43.75,114.03l0 355.61c0,47.16 14.58,85.18 43.75,114.03 27.27,26.97 62.39,41.34 105.38,43.1 -3,0.13 -6.05,0.19 -9.13,0.19zm9.13 -93.57c14.32,-1.58 25.86,-7 34.62,-16.28 10.55,-11.17 15.83,-26.99 15.83,-47.47l0 -355.61c0,-20.48 -5.28,-36.3 -15.83,-47.48 -8.76,-9.27 -20.3,-14.69 -34.62,-16.27 2.92,-0.32 5.96,-0.48 9.12,-0.48 18.62,0 33.21,5.59 43.76,16.75 10.55,11.18 15.82,27 15.82,47.48l0 355.61c0,20.48 -5.27,36.3 -15.82,47.47 -10.55,11.17 -25.14,16.76 -43.76,16.76 -3.16,0 -6.2,-0.16 -9.12,-0.48z"/>
  <path class="fil7" d="M1580.21 837.83c8.38,3.86 14.77,9.56 19.18,17.08 4.4,7.52 6.61,16.66 6.61,27.4l0 18.38c0,16.33 -4.84,29.38 -14.51,39.16 -9.67,9.78 -22.67,14.67 -39.01,14.67l-57.05 0 0 -225.65 54.15 0c16.34,0 29.34,4.89 39.01,14.67 9.67,9.77 14.51,22.83 14.51,39.16l0 11.93c0,20.2 -7.63,34.6 -22.89,43.2zm-50.61 -76.73l0 61.25 15.15 0c8.16,0 14.24,-1.99 18.21,-5.96 3.98,-3.98 5.96,-10.05 5.96,-18.21l0 -16.12c0,-6.66 -1.82,-11.82 -5.48,-15.48 -3.65,-3.65 -8.81,-5.48 -15.47,-5.48l-18.37 0zm42.23 117.67c0,-8.17 -1.99,-14.24 -5.97,-18.22 -3.97,-3.97 -10.04,-5.96 -18.21,-5.96l-18.05 0 0 67.69 21.27 0c6.66,0 11.82,-1.82 15.48,-5.48 3.65,-3.65 5.48,-8.81 5.48,-15.47l0 -22.56zm117.02 78.97c-15.69,0 -28.48,-4.89 -38.36,-14.66 -9.89,-9.78 -14.83,-22.52 -14.83,-38.2l0 -176.01 34.17 0 0 176.01c0,6.44 1.77,11.49 5.32,15.15 3.54,3.65 8.11,5.48 13.7,5.48 5.58,0 10.15,-1.83 13.7,-5.48 3.54,-3.66 5.32,-8.71 5.32,-15.15l0 -176.01 33.52 0 0 176.01c0,15.68 -4.83,28.42 -14.5,38.2 -9.68,9.77 -22.35,14.66 -38.04,14.66zm136.03 0c-10.74,0 -20.3,-2.36 -28.69,-7.09 -8.38,-4.73 -14.88,-11.28 -19.5,-19.66 -4.62,-8.38 -6.93,-17.95 -6.93,-28.69l0 -8.06 32.88 -3.55 0 8.38c0,8.17 1.94,14.62 5.8,19.35 3.87,4.72 9.24,7.09 16.12,7.09 6.66,0 11.98,-1.94 15.96,-5.8 3.97,-3.87 5.96,-9.14 5.96,-15.8 0,-7.31 -2.09,-14.29 -6.28,-20.95 -4.19,-6.67 -12.52,-15.91 -24.99,-27.73 -16.76,-15.9 -28.2,-29.12 -34.33,-39.65 -6.12,-10.53 -9.19,-22.03 -9.19,-34.49 0,-16.98 4.62,-30.46 13.87,-40.46 9.24,-9.99 21.92,-14.99 38.03,-14.99 16.12,0 28.8,5.05 38.04,15.16 9.24,10.1 13.86,23.64 13.86,40.61l0 5.81 -32.88 3.54 0 -6.45c0,-8.59 -1.61,-15.15 -4.83,-19.66 -3.23,-4.51 -7.85,-6.77 -13.86,-6.77 -6.02,0 -10.64,1.83 -13.86,5.48 -3.23,3.65 -4.84,9.03 -4.84,16.12 0,7.09 2.15,13.91 6.45,20.47 4.3,6.55 12.57,15.96 24.82,28.2 16.76,16.77 28.21,30.25 34.33,40.46 6.12,10.21 9.19,21.44 9.19,33.69 0,10.74 -2.31,20.31 -6.93,28.69 -4.62,8.38 -11.12,14.93 -19.51,19.66 -8.38,4.73 -17.94,7.09 -28.69,7.09zm134.75 0c-15.91,0 -28.8,-4.94 -38.69,-14.82 -9.88,-9.89 -14.82,-22.79 -14.82,-38.69l0 -125.07c0,-15.91 4.94,-28.8 14.82,-38.69 9.89,-9.88 22.78,-14.83 38.69,-14.83 15.9,0 28.79,4.95 38.68,14.83 9.89,9.89 14.83,22.78 14.83,38.69l0 26.43 -33.53 0 0 -26.43c0,-6.45 -1.82,-11.61 -5.48,-15.48 -3.65,-3.87 -8.38,-5.8 -14.18,-5.8 -5.8,0 -10.53,1.93 -14.18,5.8 -3.66,3.87 -5.48,9.03 -5.48,15.48l0 125.07c0,6.45 1.82,11.61 5.48,15.48 3.65,3.86 8.38,5.8 14.18,5.8 5.8,0 10.53,-1.94 14.18,-5.8 3.66,-3.87 5.48,-9.03 5.48,-15.48l0 -32.23 33.53 0 0 32.23c0,15.9 -4.94,28.8 -14.83,38.69 -9.89,9.88 -22.78,14.82 -38.68,14.82zm152.15 -53.19l-36.75 0 -7.41 49.97 -34.17 0 37.39 -225.65 45.78 0 37.39 225.65 -34.82 0 -7.41 -49.97zm-4.51 -32.88l-13.86 -94.45 -13.87 94.45 27.73 0zm73.18 -142.8l53.51 0c16.33,0 29.33,4.89 39,14.67 9.68,9.77 14.51,22.83 14.51,39.16l0 117.99c0,16.33 -4.83,29.38 -14.51,39.16 -9.67,9.78 -22.67,14.67 -39,14.67l-53.51 0 0 -225.65zm51.9 193.41c6.66,0 11.82,-1.82 15.47,-5.48 3.65,-3.65 5.48,-8.81 5.48,-15.47l0 -119.27c0,-6.66 -1.83,-11.82 -5.48,-15.48 -3.65,-3.65 -8.81,-5.48 -15.47,-5.48l-17.73 0 0 161.18 17.73 0zm141.19 35.46c-16.34,0 -29.55,-4.99 -39.65,-14.99 -10.1,-9.99 -15.15,-23.15 -15.15,-39.49l0 -123.14c0,-16.33 5.05,-29.49 15.15,-39.49 10.1,-9.99 23.31,-14.99 39.65,-14.99 16.33,0 29.55,5 39.65,14.99 10.1,10 15.15,23.16 15.15,39.49l0 123.14c0,16.34 -5.05,29.5 -15.15,39.49 -10.1,10 -23.32,14.99 -39.65,14.99zm0 -32.23c6.44,0 11.49,-1.94 15.15,-5.8 3.65,-3.87 5.48,-9.35 5.48,-16.45l0 -123.14c0,-7.09 -1.83,-12.57 -5.48,-16.44 -3.66,-3.87 -8.71,-5.8 -15.15,-5.8 -6.45,0 -11.5,1.93 -15.15,5.8 -3.66,3.87 -5.48,9.35 -5.48,16.44l0 123.14c0,7.1 1.82,12.58 5.48,16.45 3.65,3.86 8.7,5.8 15.15,5.8zm166.01 29.01l-24.82 -93.16 -17.73 0 0 93.16 -34.17 0 0 -225.65 53.51 0c16.33,0 29.33,4.89 39,14.67 9.68,9.77 14.51,22.83 14.51,39.16l0 24.82c0,10.32 -2.04,19.45 -6.12,27.4 -4.09,7.96 -9.89,14.19 -17.41,18.7l28.69 100.9 -35.46 0zm-42.55 -125.4l17.73 0c6.66,0 11.82,-1.82 15.47,-5.48 3.65,-3.65 5.48,-8.81 5.48,-15.47l0 -26.11c0,-6.66 -1.83,-11.82 -5.48,-15.48 -3.65,-3.65 -8.81,-5.48 -15.47,-5.48l-17.73 0 0 68.02zm170.53 -100.25l53.51 0c16.33,0 29.33,4.89 39,14.67 9.68,9.77 14.51,22.83 14.51,39.16l0 117.99c0,16.33 -4.83,29.38 -14.51,39.16 -9.67,9.78 -22.67,14.67 -39,14.67l-53.51 0 0 -225.65zm51.9 193.41c6.66,0 11.82,-1.82 15.47,-5.48 3.65,-3.65 5.48,-8.81 5.48,-15.47l0 -119.27c0,-6.66 -1.83,-11.82 -5.48,-15.48 -3.65,-3.65 -8.81,-5.48 -15.47,-5.48l-17.73 0 0 161.18 17.73 0zm89.29 -193.41l97.03 0 0 32.23 -62.86 0 0 62.86 49.96 0 0 32.24 -49.96 0 0 66.08 62.86 0 0 32.24 -97.03 0 0 -225.65zm237.57 228.87c-10.74,0 -20.3,-2.36 -28.69,-7.09 -8.38,-4.73 -14.88,-11.28 -19.5,-19.66 -4.62,-8.38 -6.93,-17.95 -6.93,-28.69l0 -8.06 32.88 -3.55 0 8.38c0,8.17 1.94,14.62 5.8,19.35 3.87,4.72 9.24,7.09 16.12,7.09 6.66,0 11.98,-1.94 15.96,-5.8 3.97,-3.87 5.96,-9.14 5.96,-15.8 0,-7.31 -2.09,-14.29 -6.28,-20.95 -4.19,-6.67 -12.52,-15.91 -24.99,-27.73 -16.76,-15.9 -28.2,-29.12 -34.33,-39.65 -6.12,-10.53 -9.19,-22.03 -9.19,-34.49 0,-16.98 4.62,-30.46 13.87,-40.46 9.24,-9.99 21.92,-14.99 38.03,-14.99 16.12,0 28.8,5.05 38.04,15.16 9.24,10.1 13.86,23.64 13.86,40.61l0 5.81 -32.88 3.54 0 -6.45c0,-8.59 -1.61,-15.15 -4.83,-19.66 -3.23,-4.51 -7.85,-6.77 -13.86,-6.77 -6.02,0 -10.64,1.83 -13.86,5.48 -3.23,3.65 -4.84,9.03 -4.84,16.12 0,7.09 2.15,13.91 6.45,20.47 4.3,6.55 12.57,15.96 24.82,28.2 16.76,16.77 28.21,30.25 34.33,40.46 6.12,10.21 9.19,21.44 9.19,33.69 0,10.74 -2.31,20.31 -6.93,28.69 -4.62,8.38 -11.12,14.93 -19.51,19.66 -8.38,4.73 -17.94,7.09 -28.69,7.09zm84.14 -228.87l97.03 0 0 32.23 -62.86 0 0 62.86 49.96 0 0 32.24 -49.96 0 0 66.08 62.86 0 0 32.24 -97.03 0 0 -225.65zm202.44 225.65l-24.82 -93.16 -17.73 0 0 93.16 -34.17 0 0 -225.65 53.51 0c16.33,0 29.33,4.89 39,14.67 9.68,9.77 14.51,22.83 14.51,39.16l0 24.82c0,10.32 -2.04,19.45 -6.12,27.4 -4.09,7.96 -9.89,14.19 -17.41,18.7l28.69 100.9 -35.46 0zm-42.55 -125.4l17.73 0c6.66,0 11.82,-1.82 15.47,-5.48 3.65,-3.65 5.48,-8.81 5.48,-15.47l0 -26.11c0,-6.66 -1.83,-11.82 -5.48,-15.48 -3.65,-3.65 -8.81,-5.48 -15.47,-5.48l-17.73 0 0 68.02zm106.06 -100.25l34.17 0 0 225.65 -34.17 0 0 -225.65zm71.56 0l97.03 0 0 32.23 -62.86 0 0 62.86 49.96 0 0 32.24 -49.96 0 0 66.08 62.86 0 0 32.24 -97.03 0 0 -225.65zm173.1 228.87c-10.74,0 -20.3,-2.36 -28.69,-7.09 -8.38,-4.73 -14.88,-11.28 -19.5,-19.66 -4.62,-8.38 -6.93,-17.95 -6.93,-28.69l0 -8.06 32.88 -3.55 0 8.38c0,8.17 1.94,14.62 5.8,19.35 3.87,4.72 9.24,7.09 16.12,7.09 6.66,0 11.98,-1.94 15.96,-5.8 3.97,-3.87 5.96,-9.14 5.96,-15.8 0,-7.31 -2.09,-14.29 -6.28,-20.95 -4.19,-6.67 -12.52,-15.91 -24.99,-27.73 -16.76,-15.9 -28.2,-29.12 -34.33,-39.65 -6.12,-10.53 -9.19,-22.03 -9.19,-34.49 0,-16.98 4.62,-30.46 13.87,-40.46 9.24,-9.99 21.92,-14.99 38.03,-14.99 16.12,0 28.8,5.05 38.04,15.16 9.24,10.1 13.86,23.64 13.86,40.61l0 5.81 -32.88 3.54 0 -6.45c0,-8.59 -1.61,-15.15 -4.83,-19.66 -3.23,-4.51 -7.85,-6.77 -13.86,-6.77 -6.02,0 -10.64,1.83 -13.86,5.48 -3.23,3.65 -4.84,9.03 -4.84,16.12 0,7.09 2.15,13.91 6.45,20.47 4.3,6.55 12.57,15.96 24.82,28.2 16.76,16.77 28.21,30.25 34.33,40.46 6.12,10.21 9.19,21.44 9.19,33.69 0,10.74 -2.31,20.31 -6.93,28.69 -4.62,8.38 -11.12,14.93 -19.51,19.66 -8.38,4.73 -17.94,7.09 -28.69,7.09zm148.61 -228.87l97.03 0 0 32.23 -62.86 0 0 62.86 49.96 0 0 32.24 -49.96 0 0 66.08 62.86 0 0 32.24 -97.03 0 0 -225.65zm190.19 0l95.42 0 0 32.23 -61.25 0 0 66.09 48.35 0 0 32.23 -48.35 0 0 95.1 -34.17 0 0 -225.65zm121.85 0l34.17 0 0 225.65 -34.17 0 0 -225.65zm71.56 0l34.17 0 0 193.41 60.92 0 0 32.24 -95.09 0 0 -225.65zm276.9 0l0 225.65 -34.17 0 0 -154.73 -31.91 154.73 -23.85 0 -31.92 -154.73 0 154.73 -33.52 0 0 -225.65 48.35 0 29.66 144.09 28.37 -144.09 48.99 0zm37.4 0l97.03 0 0 32.23 -62.86 0 0 62.86 49.96 0 0 32.24 -49.96 0 0 66.08 62.86 0 0 32.24 -97.03 0 0 -225.65zm173.1 228.87c-10.74,0 -20.3,-2.36 -28.69,-7.09 -8.38,-4.73 -14.88,-11.28 -19.5,-19.66 -4.62,-8.38 -6.93,-17.95 -6.93,-28.69l0 -8.06 32.88 -3.55 0 8.38c0,8.17 1.94,14.62 5.8,19.35 3.87,4.72 9.24,7.09 16.12,7.09 6.66,0 11.98,-1.94 15.96,-5.8 3.97,-3.87 5.96,-9.14 5.96,-15.8 0,-7.31 -2.09,-14.29 -6.28,-20.95 -4.19,-6.67 -12.52,-15.91 -24.99,-27.73 -16.76,-15.9 -28.2,-29.12 -34.33,-39.65 -6.12,-10.53 -9.19,-22.03 -9.19,-34.49 0,-16.98 4.62,-30.46 13.87,-40.46 9.24,-9.99 21.92,-14.99 38.03,-14.99 16.12,0 28.8,5.05 38.04,15.16 9.24,10.1 13.86,23.64 13.86,40.61l0 5.81 -32.88 3.54 0 -6.45c0,-8.59 -1.61,-15.15 -4.83,-19.66 -3.23,-4.51 -7.85,-6.77 -13.86,-6.77 -6.02,0 -10.64,1.83 -13.86,5.48 -3.23,3.65 -4.84,9.03 -4.84,16.12 0,7.09 2.15,13.91 6.45,20.47 4.3,6.55 12.57,15.96 24.82,28.2 16.76,16.77 28.21,30.25 34.33,40.46 6.12,10.21 9.19,21.44 9.19,33.69 0,10.74 -2.31,20.31 -6.93,28.69 -4.62,8.38 -11.12,14.93 -19.51,19.66 -8.38,4.73 -17.94,7.09 -28.69,7.09z"/>
  <path class="fil7" d="M1673.97 693.37c-47.16,0 -85.33,-14.43 -114.5,-43.29 -29.16,-28.85 -43.75,-66.87 -43.75,-114.03l0 -355.61c0,-47.16 14.59,-85.18 43.75,-114.03 29.17,-28.86 67.34,-43.29 114.5,-43.29 47.17,0 85.34,14.43 114.51,43.29 29.17,28.85 43.75,66.87 43.75,114.03l0 355.61c0,47.16 -14.58,85.18 -43.75,114.03 -29.17,28.86 -67.34,43.29 -114.51,43.29zm0 -93.09c18.62,0 33.21,-5.59 43.76,-16.76 10.55,-11.17 15.82,-26.99 15.82,-47.47l0 -355.61c0,-20.48 -5.27,-36.3 -15.82,-47.48 -10.55,-11.16 -25.14,-16.75 -43.76,-16.75 -18.61,0 -33.2,5.59 -43.75,16.75 -10.55,11.18 -15.82,27 -15.82,47.48l0 355.61c0,20.48 5.27,36.3 15.82,47.47 10.55,11.17 25.14,16.76 43.75,16.76zm590.2 93.09c-45.92,0 -83.16,-14.27 -111.71,-42.82 -28.55,-28.55 -42.82,-65.78 -42.82,-111.71l0 -361.19c0,-45.93 14.27,-83.16 42.82,-111.71 28.55,-28.55 65.79,-42.82 111.71,-42.82 45.92,0 83.16,14.27 111.71,42.82 28.55,28.55 42.82,65.78 42.82,111.71l0 76.33 -96.81 0 0 -76.33c0,-18.62 -5.28,-33.51 -15.83,-44.69 -10.55,-11.16 -24.2,-16.75 -40.96,-16.75 -16.76,0 -30.41,5.59 -40.96,16.75 -10.55,11.18 -15.82,26.07 -15.82,44.69l0 361.19c0,18.62 5.27,33.51 15.82,44.68 10.55,11.17 24.2,16.76 40.96,16.76 16.76,0 30.41,-5.59 40.96,-16.76 10.55,-11.17 15.83,-26.06 15.83,-44.68l0 -93.09 96.81 0 0 93.09c0,45.93 -14.27,83.16 -42.82,111.71 -28.55,28.55 -65.79,42.82 -111.71,42.82zm244.83 -660.94l98.68 0 0 651.63 -98.68 0 0 -651.63zm206.66 0l108.92 0 125.67 437.52 0 -437.52 96.81 0 0 651.63 -104.26 0 -130.32 -417.04 0 417.04 -96.82 0 0 -651.63zm439.39 0l280.2 0 0 93.09 -181.53 0 0 181.52 144.29 0 0 93.1 -144.29 0 0 190.83 181.53 0 0 93.09 -280.2 0 0 -651.63zm363.05 0l275.55 0 0 93.09 -176.87 0 0 190.83 139.64 0 0 93.09 -139.64 0 0 274.62 -98.68 0 0 -651.63zm351.88 0l98.68 0 0 651.63 -98.68 0 0 -651.63zm206.66 0l98.68 0 0 558.54 175.94 0 0 93.09 -274.62 0 0 -651.63zm500.83 660.94c-47.16,0 -85.33,-14.43 -114.5,-43.29 -29.17,-28.85 -43.75,-66.87 -43.75,-114.03l0 -355.61c0,-47.16 14.58,-85.18 43.75,-114.03 29.17,-28.86 67.34,-43.29 114.5,-43.29 47.17,0 85.34,14.43 114.51,43.29 29.17,28.85 43.75,66.87 43.75,114.03l0 355.61c0,47.16 -14.58,85.18 -43.75,114.03 -29.17,28.86 -67.34,43.29 -114.51,43.29zm0 -93.09c18.62,0 33.21,-5.59 43.76,-16.76 10.55,-11.17 15.82,-26.99 15.82,-47.47l0 -355.61c0,-20.48 -5.27,-36.3 -15.82,-47.48 -10.55,-11.16 -25.14,-16.75 -43.76,-16.75 -18.61,0 -33.2,5.59 -43.75,16.75 -10.55,11.18 -15.82,27 -15.82,47.48l0 355.61c0,20.48 5.27,36.3 15.82,47.47 10.55,11.17 25.14,16.76 43.75,16.76z"/>
 </g>
</svg>
