<?xml version="1.0" encoding="UTF-8"?>
<!DOCTYPE svg PUBLIC "-//W3C//DTD SVG 1.1//EN" "http://www.w3.org/Graphics/SVG/1.1/DTD/svg11.dtd">
<!-- Creator: CorelDRAW 2020 (64 Bit) -->
<svg xmlns="http://www.w3.org/2000/svg" xml:space="preserve" width="5.4525mm" height="1.5432mm" version="1.1" style="shape-rendering:geometricPrecision; text-rendering:geometricPrecision; image-rendering:optimizeQuality; fill-rule:evenodd; clip-rule:evenodd"
viewBox="0 0 5.19 1.47"
 xmlns:xlink="http://www.w3.org/1999/xlink"
 xmlns:xodm="http://www.corel.com/coreldraw/odm/2003">
 <defs>
  <style type="text/css">
   <![CDATA[
    .fil0 {fill:white;fill-rule:nonzero}
   ]]>
  </style>
 </defs>
 <g id="Camada_x0020_1">
  <metadata id="CorelCorpID_0Corel-Layer"/>
  <g id="_2289528507424">
   <path class="fil0" d="M0.78 0.76l-0.06 -0 0 -0.76 0.18 0c0.19,0 0.21,0 0.26,0.01 0.08,0.02 0.14,0.07 0.17,0.14 0.02,0.03 0.02,0.06 0.02,0.1 0,0.09 -0.04,0.17 -0.11,0.22 -0.02,0.01 -0.02,0.01 -0.02,0.02 0.01,0.01 0.15,0.27 0.15,0.27 0,0 -0.06,0 -0.12,0l-0.12 0 -0.07 -0.12c-0.04,-0.07 -0.07,-0.12 -0.08,-0.13 -0,-0 -0.01,-0 -0.03,-0.01l-0.02 -0 0 0.13 0 0.13 -0.05 -0c-0.03,-0 -0.08,-0 -0.11,-0l0 0 0 0zm0.27 -0.42c0.05,-0.01 0.08,-0.03 0.08,-0.07 0,-0.03 -0,-0.05 -0.02,-0.06 -0.02,-0.02 -0.06,-0.03 -0.13,-0.03l-0.04 0 0 0.02c0,0.01 0,0.05 0,0.09l0 0.06 0.04 -0c0.02,-0 0.05,-0 0.06,-0.01l0 0z"/>
   <path class="fil0" d="M1.62 0.77c-0.07,-0.01 -0.13,-0.04 -0.17,-0.09 -0.05,-0.06 -0.08,-0.13 -0.09,-0.21 -0,-0.04 0,-0.07 0.01,-0.1 0.04,-0.12 0.15,-0.2 0.3,-0.2 0.03,-0 0.05,-0 0.07,0 0.13,0.02 0.23,0.11 0.26,0.25 0.01,0.03 0.01,0.09 -0,0.12 -0.03,0.11 -0.1,0.19 -0.22,0.22 -0.05,0.01 -0.12,0.02 -0.16,0.01l0 0 0 0zm0.07 -0.09c0.03,-0.01 0.04,-0.02 0.04,-0.05 -0,-0.01 -0,-0.02 -0,-0.03 -0.01,-0.03 -0.01,-0.03 -0.01,-0.04 0,-0 0.01,-0.01 0.01,-0.01 0.01,-0 0.01,-0 0.03,0.02 0.02,0.02 0.05,0.05 0.07,0.06 0.02,0.01 0.02,0.01 0.04,0.01 0.02,-0 0.02,-0 0.03,-0.01 0.02,-0.01 0.02,-0.02 0.02,-0.04 -0,-0.02 -0.01,-0.04 -0.04,-0.06 -0.01,-0.01 -0.05,-0.02 -0.07,-0.02 -0.03,-0 -0.04,-0.01 -0.04,-0.02 -0,-0.01 0,-0.02 0.01,-0.03 0.01,-0 0.01,-0.01 0.04,-0.01 0.02,-0 0.03,-0 0.04,-0.01 0.04,-0.02 0.04,-0.09 0,-0.11 -0.01,-0.01 -0.01,-0.01 -0.03,-0.01 -0.04,0 -0.06,0.02 -0.07,0.07 -0,0 -0,0.01 -0.01,0.01 -0.01,0.01 -0.02,0.01 -0.03,0 -0.01,-0.01 -0.01,-0.02 -0.01,-0.06 0.01,-0.05 0,-0.07 -0.02,-0.08 -0.01,-0.01 -0.04,-0.01 -0.06,-0.01 -0.01,0 -0.03,0.02 -0.04,0.04 -0.01,0.03 -0,0.05 0.03,0.08 0.01,0.01 0.02,0.03 0.03,0.03 0,0.01 -0.01,0.03 -0.03,0.03 -0.01,-0 -0.02,-0.01 -0.03,-0.03 -0.02,-0.03 -0.05,-0.04 -0.08,-0.03 -0.03,0.01 -0.03,0.04 -0.02,0.07 0.01,0.01 0.03,0.02 0.06,0.03 0.04,0.01 0.05,0.02 0.04,0.03 -0.01,0.01 -0.01,0.01 -0.02,0.01 -0.03,-0 -0.04,-0 -0.05,0.01 -0.02,0.01 -0.02,0.02 -0.03,0.03 -0.01,0.04 0.02,0.07 0.05,0.07 0.02,-0 0.03,-0.01 0.06,-0.03 0.03,-0.03 0.03,-0.03 0.04,-0.02 0.01,0.01 0.01,0.02 0,0.03 -0.01,0.04 -0,0.08 0.03,0.09 0.01,0 0.02,0 0.04,-0l0 0 0 0zm0.61 0.08c-0.1,-0.01 -0.16,-0.03 -0.19,-0.1 -0.02,-0.04 -0.03,-0.08 -0.03,-0.2l-0 -0.09 -0.01 0c-0.01,0 -0.02,-0 -0.03,-0l-0.01 -0 0 -0.19 0.06 0 0 -0.16 0.22 0 0 0.16 0.09 0 0 0.19 -0.09 0 0 0.09c0,0.08 0,0.09 0.01,0.09 0.01,0.02 0.02,0.02 0.06,0.02l0.04 0 0 0.19 -0.05 -0c-0.02,-0 -0.06,-0 -0.08,-0l0 0 0 0zm0.41 -0c-0.12,-0.01 -0.17,-0.06 -0.19,-0.17 -0,-0.02 -0,-0.05 -0.01,-0.12 -0,-0.05 -0,-0.09 -0,-0.1 -0,-0 -0.01,-0 -0.03,-0l-0.03 -0 0 -0.19 0.06 0 -0 -0.08 -0 -0.08 0.22 0 0 0.16 0.09 0 0 0.19 -0.09 0 0 0.09c0,0.08 0,0.09 0.01,0.09 0.01,0.02 0.02,0.02 0.06,0.02l0.04 0 0 0.19 -0.06 -0c-0.03,-0 -0.07,-0 -0.08,-0l0 0 0 0zm0.45 -0.12c-0.09,-0.01 -0.18,-0.06 -0.22,-0.12 -0.04,-0.06 -0.06,-0.12 -0.06,-0.19 -0,-0.1 0.04,-0.18 0.13,-0.24 0.05,-0.04 0.1,-0.05 0.18,-0.05 0.04,-0 0.05,-0 0.07,0 0.04,0.01 0.08,0.03 0.11,0.05 0.03,0.02 0.06,0.07 0.07,0.11 0.02,0.05 0.03,0.13 0.02,0.17l-0 0.01 -0.19 0c-0.11,0 -0.19,0 -0.19,0 0,0 0,0.01 0.01,0.02 0.02,0.04 0.06,0.06 0.12,0.06 0.04,-0 0.08,-0.01 0.11,-0.03l0.01 -0.01 0.06 0.06c0.02,0.02 0.05,0.04 0.07,0.06 0.01,0.01 0,0.01 -0.02,0.03 -0.04,0.03 -0.08,0.05 -0.14,0.06 -0.03,0.01 -0.1,0.01 -0.13,0.01l0 0 -0 0zm0.12 -0.39c-0,-0.03 -0.02,-0.05 -0.05,-0.06 -0.03,-0.01 -0.07,-0.01 -0.1,0 -0.02,0.01 -0.04,0.04 -0.05,0.06l-0 0.01 0.02 0c0.01,0 0.06,0 0.1,0l0.08 0 -0 -0.01 0 0zm0.27 0.06l0 -0.13 0.22 0 0 0.04c0,0.02 0,0.04 0,0.04 0,0 0.01,-0.01 0.02,-0.02 0.02,-0.03 0.06,-0.06 0.1,-0.07 0.11,-0.04 0.23,0.05 0.25,0.18 0,0.01 0,0.1 0,0.21l0 0.19 -0.22 0 0 -0.34 -0.01 -0.01c-0.01,-0.02 -0.04,-0.04 -0.06,-0.04 -0.03,-0 -0.06,0.02 -0.07,0.06 -0.01,0.02 -0.01,0.02 -0.01,0.18l-0 0.16 -0.22 0 0 -0.29 0 0 0 -0.16zm0.08 1.14c-0.07,-0.01 -0.13,-0.04 -0.17,-0.08 -0.05,-0.05 -0.08,-0.13 -0.08,-0.21 0,-0.08 0.04,-0.16 0.11,-0.21 0.01,-0.01 0.02,-0.02 0.02,-0.02 -0,-0 -0.02,0 -0.05,0 -0.02,0 -0.05,0 -0.05,0 -0,-0 0.01,-0.03 0.03,-0.03 0.02,-0.02 0.05,-0.03 0.08,-0.02 0.02,0.01 0.02,0 -0,-0.03l-0.02 -0.02 0.01 -0.01c0.01,-0.01 0.02,-0.01 0.02,-0.01 0,0 0.01,0.01 0.02,0.03 0.01,0.02 0.02,0.03 0.02,0.03 0,0 0.01,-0.01 0.01,-0.01 0.02,-0.03 0.06,-0.05 0.09,-0.04 0.02,0.01 0.02,0.01 0,0.03 -0.01,0.01 -0.02,0.02 -0.02,0.02 0,0 0.02,0 0.05,-0 0.09,-0 0.15,0.01 0.21,0.05 0.02,0.01 0.04,0.04 0.06,0.06 0.01,0.01 0.04,0.07 0.04,0.09 0.01,0.04 0.02,0.12 0,0.16 -0.01,0.03 -0.03,0.07 -0.05,0.1 -0.05,0.06 -0.12,0.1 -0.21,0.12 -0.03,0.01 -0.1,0.01 -0.12,0l0 0zm0.71 0.01c-0.06,-0.01 -0.11,-0.03 -0.16,-0.06 -0.06,-0.04 -0.1,-0.1 -0.12,-0.19 -0.01,-0.03 -0.01,-0.08 -0,-0.11 0.01,-0.1 0.07,-0.17 0.17,-0.22 0.02,-0.01 0.03,-0.01 0.06,-0.02 0.03,-0.01 0.04,-0.01 0.09,-0.01 0.05,0 0.06,0 0.08,0.01 0.1,0.03 0.16,0.1 0.19,0.21 0.01,0.02 0.01,0.04 0.01,0.08l0 0.05 -0.2 0 -0.2 0 0.01 0.01c0.02,0.04 0.07,0.06 0.12,0.06 0.04,0 0.08,-0.01 0.11,-0.03l0.01 -0.01 0.07 0.06 0.07 0.06 -0.01 0.01c-0.06,0.06 -0.18,0.1 -0.28,0.08l0 -0 0 0zm0.11 -0.37c-0.01,-0.04 -0.03,-0.06 -0.08,-0.07 -0.05,-0.01 -0.11,0.02 -0.12,0.07 -0,0.01 -0,0.01 0.02,0.01 0.01,0 0.05,0 0.1,0l0.08 0 -0 -0.01 0 0zm0.42 0.37c-0.03,-0 -0.07,-0.01 -0.1,-0.02 -0.04,-0.01 -0.09,-0.04 -0.09,-0.05 0,-0 0.08,-0.14 0.08,-0.15 0,-0 0.02,0.01 0.04,0.02 0.06,0.03 0.08,0.04 0.12,0.04 0.03,-0 0.05,-0.01 0.06,-0.02 0.01,-0.01 0.01,-0.04 -0.01,-0.04 -0,-0 -0.03,-0 -0.05,-0 -0.03,0 -0.05,-0 -0.06,-0 -0.08,-0.02 -0.14,-0.07 -0.16,-0.13 -0,-0.01 -0.01,-0.02 -0.01,-0.05l-0 -0.03 0.01 -0.02c0.03,-0.07 0.1,-0.12 0.18,-0.14 0.02,-0 0.03,-0.01 0.07,-0 0.04,0 0.07,0.01 0.11,0.02 0.04,0.01 0.1,0.04 0.1,0.05 -0,0 -0.02,0.03 -0.04,0.07 -0.03,0.05 -0.04,0.06 -0.04,0.06 -0.02,-0.01 -0.08,-0.03 -0.1,-0.03 -0.01,-0 -0.03,-0 -0.05,-0 -0.03,-0 -0.04,0 -0.05,0.02 -0.01,0.01 -0.01,0.03 0,0.03 0.01,0.01 0.01,0.01 0.05,0.01 0.1,0 0.16,0.02 0.21,0.07 0.03,0.03 0.04,0.06 0.04,0.1 0,0.06 -0.02,0.11 -0.06,0.15 -0.03,0.03 -0.04,0.04 -0.08,0.05 -0.04,0.02 -0.12,0.02 -0.17,0.02l0 0 0 0zm-1.66 -0.02c-0.02,-0 -0.06,-0.01 -0.08,-0.01 -0.08,-0.02 -0.12,-0.07 -0.14,-0.16 -0,-0.01 -0,-0.05 -0.01,-0.12l-0 -0.1 -0.01 -0c-0.01,-0 -0.02,-0 -0.03,-0l-0.01 0 0 -0.19 0.06 0 -0 -0.02c-0,-0.04 -0,-0.07 -0,-0.08l-0 -0.01 0.22 0 0 0.12 0.09 0 0 0.19 -0.09 0 0 0.08c0,0.05 0,0.08 0,0.09 0,0.01 0.01,0.02 0.02,0.02 0,0 0.02,0 0.05,0l0.04 0 0 0.19 -0.05 -0c-0.03,-0 -0.06,-0 -0.06,-0zm-0.79 0.02c-0.05,-0.01 -0.09,-0.03 -0.13,-0.07 -0.03,-0.03 -0.04,-0.05 -0.06,-0.08 -0.02,-0.05 -0.03,-0.08 -0.03,-0.14 -0,-0.05 0,-0.09 0.02,-0.14 0.02,-0.05 0.03,-0.08 0.06,-0.11 0.06,-0.06 0.14,-0.09 0.21,-0.07 0.04,0.01 0.08,0.03 0.11,0.07l0.02 0.02 0 -0.07 0.21 0 0 0.57 -0.21 0 0 -0.04c0,-0.02 -0,-0.04 -0,-0.04 -0,0 -0.01,0.01 -0.02,0.02 -0.05,0.05 -0.12,0.08 -0.18,0.07l0 0zm0.13 -0.21c0.04,-0.02 0.07,-0.08 0.05,-0.13 -0.01,-0.03 -0.03,-0.05 -0.06,-0.06 -0.03,-0.01 -0.05,-0.01 -0.08,0 -0.03,0.02 -0.05,0.05 -0.05,0.09 0,0.03 0.01,0.05 0.03,0.07 0.03,0.03 0.08,0.04 0.11,0.02l0 -0zm-0.62 0.15c-0,-0.02 -0,-0.08 -0,-0.14 -0,-0.05 -0,-0.12 -0,-0.14 -0,-0.04 -0,-0.05 -0.02,-0.06 -0.02,-0.02 -0.05,-0.02 -0.07,-0.01 -0.02,0.01 -0.04,0.03 -0.04,0.05 -0,0.01 -0,0.06 -0,0.17l0 0.16 -0.11 0c-0.06,0 -0.11,-0 -0.11,-0 -0,-0 -0,-0.08 -0,-0.17l-0 -0.17 -0.01 -0.01c-0.01,-0.01 -0.02,-0.02 -0.03,-0.03 -0.01,-0 -0.01,-0.01 -0.03,-0.01 -0.02,0 -0.02,0 -0.03,0 -0.02,0.01 -0.03,0.03 -0.04,0.06 -0,0.01 -0,0.03 -0,0.17l0 0.16 -0.22 0 -0 -0.17c-0,-0.09 -0,-0.23 -0,-0.29l0 -0.12 0.22 0 0 0.03c0,0.02 0,0.03 0,0.03 0,0 0.01,-0.01 0.02,-0.02 0.02,-0.02 0.04,-0.03 0.07,-0.04 0.08,-0.03 0.16,-0.01 0.23,0.05l0.02 0.02 0.01 -0.01c0.02,-0.04 0.09,-0.07 0.16,-0.07 0.06,0 0.11,0.02 0.15,0.06 0.04,0.04 0.06,0.1 0.06,0.16 0,0.01 0,0.1 0,0.2l0 0.18 -0.22 0 -0 -0.04 0 0zm-1.14 0.05c-0.05,-0.01 -0.08,-0.02 -0.12,-0.04 -0.09,-0.06 -0.14,-0.17 -0.14,-0.28 0.01,-0.13 0.09,-0.24 0.23,-0.27 0.06,-0.01 0.13,-0.02 0.18,-0.01 0.09,0.02 0.17,0.08 0.21,0.17 0.04,0.08 0.04,0.18 0,0.26 -0.04,0.09 -0.13,0.15 -0.25,0.17 -0.03,0 -0.1,0.01 -0.13,0l0 0zm0.1 -0.21c0.03,-0.01 0.06,-0.03 0.08,-0.06 0.01,-0.01 0.01,-0.02 0.01,-0.03 0,-0.02 -0,-0.04 -0.01,-0.06 -0.03,-0.06 -0.1,-0.08 -0.15,-0.05 -0.03,0.01 -0.05,0.05 -0.06,0.08 -0.01,0.05 0.03,0.11 0.08,0.12 0.01,0 0.04,0 0.06,-0l0 0z"/>
   <path class="fil0" d="M0.2 1.17l0 -0.27 -0.2 0 0 -0.21 0.3 0c0.17,0 0.3,0 0.3,0 0,0 0,0.05 0,0.1l0 0.1 -0.19 0 0 0.55 -0.21 0 0 -0.27 0 0z"/>
  </g>
 </g>
</svg>
